<svg width="24" height="24" viewBox="0 0 24 24" fill="none" xmlns="http://www.w3.org/2000/svg">
<path d="M19 15.552C19 19.6127 15.8069 23 12 23C8.18465 23 5 19.7175 5 15.552C5 14.7234 5.32158 13.3834 5.90955 11.7515C6.48587 10.152 7.27955 8.37512 8.13812 6.71612C8.99846 5.05369 9.90864 3.53925 10.7104 2.45461C11.1136 1.9091 11.4675 1.5025 11.7538 1.24281C11.8558 1.15033 11.9379 1.0869 12 1.04516C12.0621 1.0869 12.1442 1.15033 12.2462 1.24281C12.5325 1.5025 12.8864 1.9091 13.2896 2.45461C14.0914 3.53925 15.0015 5.05369 15.8619 6.71612C16.7205 8.37512 17.5141 10.152 18.0905 11.7515C18.6784 13.3834 19 14.7234 19 15.552ZM12.1041 0.9859C12.1041 0.985948 12.103 0.986408 12.1008 0.987135C12.103 0.986215 12.1041 0.985851 12.1041 0.9859ZM11.8992 0.987135C11.897 0.986408 11.8959 0.985948 11.8959 0.9859C11.8959 0.985851 11.897 0.986214 11.8992 0.987135Z" stroke="#FAFAFA" stroke-width="2"/>
</svg>
