<svg width="120" height="120" viewBox="0 0 120 120" fill="none" xmlns="http://www.w3.org/2000/svg">
<circle cx="60" cy="60" r="59" fill="#EC4926" stroke="#0A0A0A" stroke-width="2"/>
<path d="M65.7081 49.6217C67.3706 50.6309 69.4896 50.703 71.2721 49.6226C72.2329 49.0395 72.9642 48.2009 73.4363 47.2373L76.964 39.7266C77.8048 37.8751 79.169 36.26 80.9907 35.1568C85.7764 32.2578 91.8943 33.9778 94.6576 39.0011C97.4209 44.0226 95.781 50.4439 90.9961 53.3438C89.1745 54.4461 87.1598 54.8804 85.2121 54.7189L77.2509 54.1696C76.2179 54.1158 75.1606 54.3621 74.1989 54.9434C72.4155 56.0256 71.4173 57.9847 71.4191 60.0005C71.4208 62.0162 72.4155 63.9762 74.1989 65.0566C75.1597 65.6397 76.217 65.8842 77.2509 65.8304L85.2121 65.2811V65.2838C87.1598 65.1205 89.1754 65.5539 90.9961 66.658C95.781 69.5561 97.4209 75.9783 94.6576 80.9998C91.8943 86.0222 85.7764 87.7431 80.9907 84.8423C79.169 83.74 77.8048 82.1258 76.964 80.2743L73.4363 72.7626C72.9642 71.7991 72.2329 70.9605 71.2721 70.3783C69.4888 69.2979 67.3706 69.37 65.7081 70.3783C64.0465 71.3875 62.9266 73.2737 62.9266 75.4335C62.9266 76.5988 63.2526 77.6828 63.8135 78.5944L68.2488 85.555L68.2471 85.5568C69.3549 87.2477 70.0053 89.2926 70.0053 91.5008C70.0053 97.2997 65.5255 102 59.9998 102C54.474 102 49.9952 97.3006 49.9952 91.5008C49.9952 89.2926 50.6447 87.2477 51.7525 85.5568L51.7516 85.555L56.1861 78.5944C56.7461 77.6828 57.0721 76.5988 57.0721 75.4335C57.0721 73.2737 55.9557 71.3839 54.2914 70.3783C52.6263 69.3718 50.5108 69.2979 48.7283 70.3783C47.7675 70.9614 47.0363 71.8 46.5641 72.7626L43.0356 80.2743C42.1939 82.1258 40.8305 83.74 39.0089 84.8423C34.224 87.7431 28.1044 86.0222 25.342 80.9998C22.5795 75.9783 24.2185 69.5561 29.0043 66.6562C30.8251 65.5539 32.8389 65.1205 34.7874 65.2838V65.2811L42.7496 65.8304C43.7817 65.8852 44.839 65.6397 45.7998 65.0566C47.584 63.9762 48.5788 62.0162 48.5814 60.0005C48.5822 57.9847 47.584 56.0256 45.7998 54.9434C44.8399 54.3621 43.7817 54.1167 42.7496 54.1696L34.7874 54.7189C32.8389 54.8804 30.8242 54.4461 29.0043 53.3438C24.2185 50.4439 22.5795 44.0226 25.342 39.0011C28.1044 33.9778 34.224 32.2578 39.0089 35.1568C40.8305 36.26 42.1939 37.8751 43.0356 39.7266L46.5641 47.2373C47.0363 48.2019 47.7675 49.0404 48.7283 49.6226C50.5117 50.703 52.6263 50.6282 54.2914 49.6217C55.9557 48.6152 57.0721 46.7263 57.0721 44.5665C57.0721 43.4021 56.7461 42.3162 56.1861 41.4065L51.7516 34.4441H51.7525C50.6447 32.7533 49.9952 30.7074 49.9952 28.5001C49.9952 22.7021 54.4732 18 59.9998 18C65.5247 18 70.0053 22.7012 70.0053 28.5001C70.0053 30.7074 69.3549 32.7533 68.2471 34.4441H68.2488L63.8135 41.4065C63.2526 42.3162 62.9266 43.4021 62.9266 44.5665C62.9266 46.7263 64.0465 48.6125 65.7081 49.6217Z" fill="#0A0A0A"/>
</svg>
